# xmcd
#
# Track frame offsets: 
#        150
#        58096
#        111628
#        139941
#        182840
#        222891
#        263021
#
# Disc length: 4325 seconds
#
# Revision: 1
# Processed by: cddbd v1.5.2PL0 Copyright (c) Steve Scherf et al.
# Submitted via: ExactAudioCopyFreeDBPlugin 1.0
#
DISCID=6e10e307
DTITLE=Eugen Jochum - Brahms Symphony No.4 and Beethoven Overture
DYEAR=2012
DGENRE=Classical
TTITLE0=Brahms Symphony No.4 - Allegro non troppo
TTITLE1=Brahms Symphony No.4 - Andante moderato
TTITLE2=Brahms Symphony No.4 - Allegro giocoso
TTITLE3=Brahms Symphony No.4 - Allegro energico e passionato
TTITLE4=Beethoven - Coriolan Op.62 - Overture
TTITLE5=Beethoven - Egmont Op.84 - Overture
TTITLE6=Beethoven Leonore No.3 Op.72a - Overture
EXTD=
EXTT0=
EXTT1=
EXTT2=
EXTT3=
EXTT4=
EXTT5=
EXTT6=
PLAYORDER=
